<svg width="32" height="32" viewBox="0 0 32 32" fill="none" xmlns="http://www.w3.org/2000/svg">
<path d="M3.30769 5.61548C2.69565 5.61548 2.10868 5.85861 1.67591 6.29139C1.24313 6.72416 1 7.31113 1 7.92317V28.6924C1 29.3045 1.24313 29.8914 1.67591 30.3242C2.10868 30.757 2.69565 31.0001 3.30769 31.0001H28.6923C29.3043 31.0001 29.8913 30.757 30.3241 30.3242C30.7569 29.8914 31 29.3045 31 28.6924V7.92317C31 7.31113 30.7569 6.72416 30.3241 6.29139C29.8913 5.85861 29.3043 5.61548 28.6923 5.61548H24.0769" stroke="#999999" stroke-linecap="round" stroke-linejoin="round"/>
<path d="M7.9231 1V10.2308" stroke="#999999" stroke-linecap="round" stroke-linejoin="round"/>
<path d="M24.0769 1V10.2308" stroke="#999999" stroke-linecap="round" stroke-linejoin="round"/>
<path d="M7.9231 5.61548H19.4616" stroke="#999999" stroke-linecap="round" stroke-linejoin="round"/>
<path d="M7.92301 18.3077C8.56026 18.3077 9.07686 17.7911 9.07686 17.1538C9.07686 16.5166 8.56026 16 7.92301 16C7.28576 16 6.76917 16.5166 6.76917 17.1538C6.76917 17.7911 7.28576 18.3077 7.92301 18.3077Z" stroke="#999999" stroke-linecap="round" stroke-linejoin="round"/>
<path d="M16 18.3077C16.6373 18.3077 17.1539 17.7911 17.1539 17.1538C17.1539 16.5166 16.6373 16 16 16C15.3628 16 14.8462 16.5166 14.8462 17.1538C14.8462 17.7911 15.3628 18.3077 16 18.3077Z" stroke="#999999" stroke-linecap="round" stroke-linejoin="round"/>
<path d="M24.0769 18.3077C24.7142 18.3077 25.2308 17.7911 25.2308 17.1538C25.2308 16.5166 24.7142 16 24.0769 16C23.4397 16 22.9231 16.5166 22.9231 17.1538C22.9231 17.7911 23.4397 18.3077 24.0769 18.3077Z" stroke="#999999" stroke-linecap="round" stroke-linejoin="round"/>
<path d="M7.92301 25.2305C8.56026 25.2305 9.07686 24.714 9.07686 24.0767C9.07686 23.4394 8.56026 22.9229 7.92301 22.9229C7.28576 22.9229 6.76917 23.4394 6.76917 24.0767C6.76917 24.714 7.28576 25.2305 7.92301 25.2305Z" stroke="#999999" stroke-linecap="round" stroke-linejoin="round"/>
</svg>
