<svg width="30" height="30" viewBox="0 0 30 30" fill="none" xmlns="http://www.w3.org/2000/svg">
<path d="M11.2071 4.82141L12.1286 2.44284C12.284 2.04012 12.5574 1.69372 12.9129 1.44901C13.2685 1.2043 13.6898 1.07269 14.1214 1.07141H15.8786C16.3102 1.07269 16.7314 1.2043 17.087 1.44901C17.4426 1.69372 17.716 2.04012 17.8714 2.44284L18.7928 4.82141L21.9214 6.62141L24.45 6.2357C24.871 6.17855 25.2995 6.24786 25.6811 6.43482C26.0627 6.62178 26.38 6.91795 26.5928 7.2857L27.45 8.7857C27.6696 9.1593 27.7708 9.59072 27.7402 10.023C27.7096 10.4553 27.5486 10.8682 27.2786 11.2071L25.7143 13.2V16.8L27.3214 18.7928C27.5915 19.1318 27.7525 19.5446 27.7831 19.9769C27.8137 20.4092 27.7125 20.8407 27.4928 21.2143L26.6357 22.7143C26.4229 23.082 26.1055 23.3782 25.724 23.5651C25.3424 23.7521 24.9139 23.8214 24.4928 23.7643L21.9643 23.3786L18.8357 25.1786L17.9143 27.5571C17.7589 27.9598 17.4855 28.3062 17.1299 28.551C16.7743 28.7957 16.3531 28.9273 15.9214 28.9286H14.1214C13.6898 28.9273 13.2685 28.7957 12.9129 28.551C12.5574 28.3062 12.284 27.9598 12.1286 27.5571L11.2071 25.1786L8.07856 23.3786L5.54999 23.7643C5.12895 23.8214 4.70043 23.7521 4.31888 23.5651C3.93732 23.3782 3.61996 23.082 3.40713 22.7143L2.54999 21.2143C2.33035 20.8407 2.22915 20.4092 2.25976 19.9769C2.29036 19.5446 2.45133 19.1318 2.72141 18.7928L4.2857 16.8V13.2L2.67856 11.2071C2.40847 10.8682 2.2475 10.4553 2.2169 10.023C2.18629 9.59072 2.28749 9.1593 2.50713 8.7857L3.36427 7.2857C3.57711 6.91795 3.89447 6.62178 4.27602 6.43482C4.65757 6.24786 5.08609 6.17855 5.50713 6.2357L8.0357 6.62141L11.2071 4.82141ZM10.7143 15C10.7143 15.8476 10.9656 16.6762 11.4365 17.381C11.9075 18.0858 12.5768 18.6351 13.3599 18.9595C14.143 19.2838 15.0047 19.3687 15.8361 19.2033C16.6674 19.038 17.4311 18.6298 18.0304 18.0304C18.6298 17.4311 19.038 16.6674 19.2034 15.8361C19.3687 15.0047 19.2838 14.143 18.9595 13.3599C18.6351 12.5768 18.0858 11.9075 17.381 11.4365C16.6762 10.9656 15.8476 10.7143 15 10.7143C13.8633 10.7143 12.7733 11.1658 11.9695 11.9695C11.1658 12.7733 10.7143 13.8633 10.7143 15Z" stroke="black" stroke-width="2" stroke-linecap="round" stroke-linejoin="round"/>
</svg>
