<svg width="75" height="45" viewBox="0 0 75 45" fill="none" xmlns="http://www.w3.org/2000/svg">
<path d="M2.41767 0C3.40361 0 4.29054 0.599346 4.65832 1.51412L16.932 32.0423C18.6124 36.2221 24.5297 36.2221 26.2102 32.0422L38.6076 1.20613C38.9006 0.477432 39.6071 0 40.3925 0C41.7838 0 42.715 1.4313 42.1512 2.70325L25.5983 40.0497C23.8408 44.015 18.2135 44.015 16.4561 40.0497L0.209838 3.39348C-0.497841 1.79675 0.671143 0 2.41767 0Z" fill="#1BCE86"/>
<path d="M73.1062 43.5693C72.2726 43.5841 71.5317 43.0516 71.2818 42.258L62.9932 15.9441C61.5108 11.2378 54.8122 11.3563 53.4251 16.1133L45.5887 42.9862C45.4025 43.6249 44.8212 44.0696 44.1574 44.0814C43.1283 44.0996 42.3917 43.1036 42.7082 42.1217L53.7938 7.72852C55.2698 3.14902 61.7085 3.03508 63.2763 7.56071L74.8758 41.0449C75.2979 42.2635 74.3986 43.5465 73.1062 43.5693Z" fill="#1F2937"/>
<path d="M24.4844 7.91248C26.049 3.42966 32.3731 3.38973 33.9258 7.85291L45.625 41.4838C46.0804 42.7943 45.0332 44.151 43.6475 44.0453C42.8697 43.9858 42.2088 43.461 41.9746 42.7181L33.7295 16.5453C32.2469 11.8392 25.5492 11.9582 24.1621 16.7152L17.2393 40.4564C17.1722 40.6862 17.0644 40.895 16.9277 41.0785L14.6709 36.0267L24.4844 7.91248Z" fill="#1F2937"/>
</svg>
