<svg width="25" height="25" viewBox="0 0 25 25" fill="none" xmlns="http://www.w3.org/2000/svg">
<path d="M11.0219 5.59679C11.2466 4.54095 12.7534 4.54095 12.9781 5.59679L13.6231 8.62792C13.7296 9.12837 14.1966 9.46772 14.7055 9.41434L17.7876 9.09107C18.8612 8.97846 19.3268 10.4116 18.3921 10.9515L15.7086 12.5016C15.2655 12.7575 15.0871 13.3066 15.2951 13.7741L16.555 16.6054C16.9939 17.5916 15.7748 18.4774 14.9724 17.7552L12.669 15.6821C12.2887 15.3398 11.7113 15.3398 11.331 15.6821L9.02759 17.7552C8.22523 18.4774 7.00613 17.5916 7.44498 16.6054L8.70485 13.7741C8.91286 13.3066 8.73446 12.7575 8.2914 12.5016L5.60793 10.9515C4.67319 10.4116 5.13884 8.97846 6.21243 9.09107L9.29451 9.41434C9.80338 9.46772 10.2704 9.12837 10.3769 8.62792L11.0219 5.59679Z" fill="#999999"/>
</svg>
