<svg width="24" height="27" viewBox="0 0 24 27" fill="none" xmlns="http://www.w3.org/2000/svg">
<path d="M8.5 10C13.1944 10 17 13.8056 17 18.5C17 23.1944 13.1944 27 8.5 27C3.80558 27 0 23.1944 0 18.5C0 13.8056 3.80558 10 8.5 10ZM8.5 13C5.46243 13 3 15.4624 3 18.5C3 21.5376 5.46243 24 8.5 24C11.5376 24 14 21.5376 14 18.5C14 15.4624 11.5376 13 8.5 13Z" fill="#3038D2"/>
<path d="M22.9959 0.909465C22.9459 0.359448 22.4595 -0.0458941 21.9095 0.00410708L12.9464 0.818929C12.3964 0.86893 11.9911 1.35534 12.0411 1.90536C12.0911 2.45537 12.5775 2.86072 13.1275 2.81071L21.0946 2.08643L21.8189 10.0536C21.8689 10.6036 22.3553 11.0089 22.9054 10.9589C23.4554 10.9089 23.8607 10.4225 23.8107 9.8725L22.9959 0.909465ZM12 13L12.7682 13.6402L22.7682 1.64018L22 1L21.2318 0.359816L11.2318 12.3598L12 13Z" fill="#3038D2"/>
</svg>
